<svg xmlns="http://www.w3.org/2000/svg" viewBox="0 0 320 320" width="320" height="320">
  <style>
    .bob { transform-origin: 160px 250px; animation: bob 4.2s ease-in-out infinite; animation-delay: -4.6s; }
    .blink { transform-box: fill-box; transform-origin: center; animation: blink 5s infinite; animation-delay: -4.6s; }
    @keyframes bob { 0%, 100% { transform: rotate(0deg); } 50% { transform: rotate(-2deg) translateY(-2px); } }
    @keyframes blink { 0%, 92%, 100% { transform: scaleY(1); } 95% { transform: scaleY(.1); } }
    .baby { transform-origin: 166px 300px; animation: rock 3.2s ease-in-out infinite; }
    @keyframes rock { 0%, 100% { transform: rotate(-3deg); } 50% { transform: rotate(3deg); } }
    @media (prefers-reduced-motion: reduce) { .bob, .blink, .baby { animation: none; } }
  </style>
  <path d="M44 320 C48 282 84 262 126 258 Q160 270 194 258 C236 262 272 282 276 320 Z" fill="#EDE4D3" stroke="#3A2618" stroke-width="5" stroke-linejoin="round" stroke-linecap="round"/>
    <g stroke="#ccc4b5" stroke-width="3" stroke-linecap="round"><path d="M70 300 L70 318"/><path d="M88 289.2 L88 318"/><path d="M106 278.4 L106 318"/><path d="M214 278.4 L214 318"/><path d="M232 289.2 L232 318"/><path d="M250 300 L250 318"/></g>
    <path d="M130 262 Q160 282 190 262" stroke="#beb6a9" stroke-width="7" fill="none" stroke-linecap="round"/>
    <path d="M130 262 Q160 282 190 262" stroke="#3A2618" stroke-width="3.5" stroke-linejoin="round" stroke-linecap="round" fill="none"/>
  
  <g transform="rotate(-3 160 250)"><g class="bob">
    <g transform="translate(160 160) scale(1.06) translate(-160 -160)"><path d="M160 50 C106 50 70 88 68 150 C72 200 50 236 62 296 Q72.66666666666666 310 83.33333333333333 290 Q94 304 104.66666666666666 294 Q115.33333333333333 310 126 290
      C128 266 122 246 132 222 L188 222 C198 246 192 266 194 290
      Q204.66666666666669 310 215.33333333333334 290 Q226 304 236.66666666666666 294 Q247.33333333333331 310 258 290 C246 236 268 200 252 150 C250 88 214 50 160 50 Z" fill="#7B5033" stroke="#3A2618" stroke-width="5" stroke-linejoin="round" stroke-linecap="round"/>
    <g stroke="#593a25" stroke-width="3" fill="none" stroke-linecap="round"><path d="M78 196 C74 230 80 266 78 288"/><path d="M242 196 C246 230 240 266 242 288"/></g></g>
    <path d="M140 214 L140 262 Q160 276 180 262 L180 214 Z" fill="#F7D6BE" stroke="#3A2618" stroke-width="5" stroke-linejoin="round" stroke-linecap="round"/>
    <path d="M140 232 Q160 246 180 232 L180 220 L140 220 Z" fill="#d9bca7"/>
    <g transform="translate(160 160) scale(1.06) translate(-160 -160)">
      
      <path d="M160 68 C210 68 238 106 238 154 C238 208 204 250 160 250 C116 250 82 208 82 154 C82 106 110 68 160 68 Z" fill="#F7D6BE" stroke="#3A2618" stroke-width="5" stroke-linejoin="round" stroke-linecap="round"/>
      
      <ellipse cx="110" cy="190" rx="15" ry="10" fill="#F28C6B" opacity=".4"/><ellipse cx="210" cy="190" rx="15" ry="10" fill="#F28C6B" opacity=".4"/>
      
      <g class="blink">
    <ellipse cx="128" cy="157" rx="10.5" ry="12.5" fill="#3A2618"/>
    <ellipse cx="128" cy="160" rx="7" ry="8" fill="#7C97A8" opacity=".9"/>
    <ellipse cx="128" cy="160" rx="4" ry="5" fill="#3A2618"/>
    <circle cx="124.5" cy="152" r="4" fill="#fff"/><circle cx="131.5" cy="163" r="1.8" fill="#fff"/>
    <path d="M119 148 L113 143" stroke="#3A2618" stroke-width="3" stroke-linejoin="round" stroke-linecap="round" fill="none"/>
    <ellipse cx="192" cy="157" rx="10.5" ry="12.5" fill="#3A2618"/>
    <ellipse cx="192" cy="160" rx="7" ry="8" fill="#7C97A8" opacity=".9"/>
    <ellipse cx="192" cy="160" rx="4" ry="5" fill="#3A2618"/>
    <circle cx="188.5" cy="152" r="4" fill="#fff"/><circle cx="195.5" cy="163" r="1.8" fill="#fff"/>
    <path d="M201 148 L207 143" stroke="#3A2618" stroke-width="3" stroke-linejoin="round" stroke-linecap="round" fill="none"/></g>
      <g stroke="#69442b" stroke-width="4.5" fill="none" stroke-linecap="round">
    <path d="M116 134 Q128 127 141 131"/><path d="M179 131 Q192 127 204 134"/></g>
      <path d="M157 170 Q151 186 160 189 Q167 190 170 185" stroke="#3A2618" stroke-width="3.5" stroke-linejoin="round" stroke-linecap="round" fill="none"/>
      <path d="M134 202 Q160 236 186 202 Q160 210 134 202 Z" fill="#7A2E2E" stroke="#3A2618" stroke-width="4" stroke-linejoin="round" stroke-linecap="round"/>
    <path d="M139 204 Q160 211 181 204 L179 211 Q160 217 141 211 Z" fill="#fff"/>
    <path d="M149 224 Q160 230 171 224" stroke="#E27B7B" stroke-width="6" fill="none" stroke-linecap="round"/>
      <path d="M170.4 186.6 A2.3 2.3 0 1 1 169.4 189.8" stroke="#B8902E" stroke-width="1.9" fill="none" stroke-linecap="round"/>
  <path d="M170.4 186.6 A2.3 2.3 0 1 1 169.4 189.8" stroke="#F2C94C" stroke-width="1" fill="none" stroke-linecap="round"/>
      <path d="M160 52 C110 52 74 90 74 150 C74 168 78 184 86 196 C86 162 92 132 108 112 C124 94 142 84 156 80 L160 88 L164 80 C178 84 196 94 212 112 C228 132 234 162 234 196 C242 184 246 168 246 150 C246 90 210 52 160 52 Z" fill="#7B5033" stroke="#3A2618" stroke-width="5" stroke-linejoin="round" stroke-linecap="round"/>
  <g stroke="#593a25" stroke-width="3" fill="none" stroke-linecap="round"><path d="M160 56 L160 84"/><path d="M116 88 C104 104 96 124 92 150"/><path d="M204 88 C216 104 224 124 228 150"/></g>
  <path d="M114 76 Q132 62 152 60" stroke="#b2744a" stroke-width="7" fill="none" stroke-linecap="round" opacity=".75"/><path d="M170 60 Q190 64 206 76" stroke="#b2744a" stroke-width="7" fill="none" stroke-linecap="round" opacity=".75"/>
      
      
      
      
      
    </g>
    <g class="baby">
    <path d="M110 302 C106 272 128 256 160 258 C198 260 224 276 222 302 C220 320 196 328 164 326 C130 326 112 318 110 302 Z" fill="#F7B7C8" stroke="#3A2618" stroke-width="4" stroke-linejoin="round" stroke-linecap="round"/>
    <path d="M152 264 C170 278 192 284 216 286 M126 312 C150 318 180 318 206 312" stroke="#E68AA5" stroke-width="3" fill="none" stroke-linecap="round"/>
    <circle cx="140" cy="277" r="20" fill="#F9DCC8" stroke="#3A2618" stroke-width="4" stroke-linejoin="round" stroke-linecap="round"/>
    <path d="M136 258 q7 -7 9 2" stroke="#3A2618" stroke-width="2.5" fill="none" stroke-linecap="round"/>
    <g fill="#F28BAA" stroke="#3A2618" stroke-width="2.5" stroke-linejoin="round" stroke-linecap="round"><path d="M140 262 l-11 -6 l0 12 Z"/><path d="M140 262 l11 -6 l0 12 Z"/><circle cx="140" cy="262" r="3.2"/></g>
    <path d="M130 277 q4 3.5 8 0 M142 277 q4 3.5 8 0" stroke="#3A2618" stroke-width="2.6" fill="none" stroke-linecap="round"/>
    <ellipse cx="129" cy="285" rx="4.5" ry="3" fill="#F28C6B" opacity=".5"/><ellipse cx="151" cy="285" rx="4.5" ry="3" fill="#F28C6B" opacity=".5"/>
    <path d="M137 287 q3 3 6 0" stroke="#3A2618" stroke-width="2.2" fill="none" stroke-linecap="round"/>
    <ellipse cx="116" cy="300" rx="11" ry="9" fill="#F7D6BE" stroke="#3A2618" stroke-width="3.5" stroke-linejoin="round" stroke-linecap="round"/><path d="M110 296 l6 2 M109 301 l6 1" stroke="#3A2618" stroke-width="2" stroke-linecap="round"/>
    <ellipse cx="214" cy="294" rx="11" ry="9" fill="#F7D6BE" stroke="#3A2618" stroke-width="3.5" stroke-linejoin="round" stroke-linecap="round"/><path d="M220 290 l-6 2 M221 295 l-6 1" stroke="#3A2618" stroke-width="2" stroke-linecap="round"/>
  </g>
  </g></g>
</svg>
